<mxfile host="app.diagrams.net" modified="2024-01-06T17:22:35.589Z" agent="Mozilla/5.0 (Windows NT 10.0; Win64; x64) AppleWebKit/537.36 (KHTML, like Gecko) Chrome/120.0.0.0 Safari/537.36" etag="s3tlt1WFGY97Fp6PH6mY" version="22.1.17" type="github">
  <diagram id="C5RBs43oDa-KdzZeNtuy" name="Page-1">
    <mxGraphModel dx="1434" dy="746" grid="1" gridSize="10" guides="1" tooltips="1" connect="1" arrows="1" fold="1" page="1" pageScale="1" pageWidth="827" pageHeight="1169" math="0" shadow="0">
      <root>
        <mxCell id="WIyWlLk6GJQsqaUBKTNV-0" />
        <mxCell id="WIyWlLk6GJQsqaUBKTNV-1" parent="WIyWlLk6GJQsqaUBKTNV-0" />
        <mxCell id="gdvSEe7s5PmMgBLLPzjQ-6" value="" style="edgeStyle=orthogonalEdgeStyle;rounded=0;orthogonalLoop=1;jettySize=auto;html=1;" edge="1" parent="WIyWlLk6GJQsqaUBKTNV-1" source="WIyWlLk6GJQsqaUBKTNV-3" target="gdvSEe7s5PmMgBLLPzjQ-2">
          <mxGeometry relative="1" as="geometry" />
        </mxCell>
        <mxCell id="WIyWlLk6GJQsqaUBKTNV-3" value="Initialize all hyperparameters" style="rounded=1;whiteSpace=wrap;html=1;fontSize=14;glass=0;strokeWidth=1;shadow=0;fontFamily=Times New Roman;" parent="WIyWlLk6GJQsqaUBKTNV-1" vertex="1">
          <mxGeometry x="110" y="100" width="120" height="70" as="geometry" />
        </mxCell>
        <mxCell id="gdvSEe7s5PmMgBLLPzjQ-8" value="" style="edgeStyle=orthogonalEdgeStyle;rounded=0;orthogonalLoop=1;jettySize=auto;html=1;" edge="1" parent="WIyWlLk6GJQsqaUBKTNV-1" source="gdvSEe7s5PmMgBLLPzjQ-2" target="gdvSEe7s5PmMgBLLPzjQ-7">
          <mxGeometry relative="1" as="geometry" />
        </mxCell>
        <mxCell id="gdvSEe7s5PmMgBLLPzjQ-2" value="Evaluate performance on validation set for each combination of&amp;nbsp;α and β&amp;nbsp;" style="rounded=1;whiteSpace=wrap;html=1;fontSize=14;glass=0;strokeWidth=1;shadow=0;fontFamily=Times New Roman;" vertex="1" parent="WIyWlLk6GJQsqaUBKTNV-1">
          <mxGeometry x="280" y="100" width="190" height="70" as="geometry" />
        </mxCell>
        <mxCell id="gdvSEe7s5PmMgBLLPzjQ-19" value="" style="edgeStyle=orthogonalEdgeStyle;rounded=0;orthogonalLoop=1;jettySize=auto;html=1;" edge="1" parent="WIyWlLk6GJQsqaUBKTNV-1" source="gdvSEe7s5PmMgBLLPzjQ-7" target="gdvSEe7s5PmMgBLLPzjQ-11">
          <mxGeometry relative="1" as="geometry" />
        </mxCell>
        <mxCell id="gdvSEe7s5PmMgBLLPzjQ-7" value="Evaluate performance on validation set&amp;nbsp;for other parameters&amp;nbsp;" style="rounded=1;whiteSpace=wrap;html=1;fontSize=14;glass=0;strokeWidth=1;shadow=0;fontFamily=Times New Roman;" vertex="1" parent="WIyWlLk6GJQsqaUBKTNV-1">
          <mxGeometry x="560" y="100" width="140" height="70" as="geometry" />
        </mxCell>
        <mxCell id="gdvSEe7s5PmMgBLLPzjQ-20" value="" style="edgeStyle=orthogonalEdgeStyle;rounded=0;orthogonalLoop=1;jettySize=auto;html=1;" edge="1" parent="WIyWlLk6GJQsqaUBKTNV-1" source="gdvSEe7s5PmMgBLLPzjQ-11" target="gdvSEe7s5PmMgBLLPzjQ-17">
          <mxGeometry relative="1" as="geometry" />
        </mxCell>
        <mxCell id="gdvSEe7s5PmMgBLLPzjQ-11" value="Optimal hyperparameter set" style="rounded=1;whiteSpace=wrap;html=1;fontSize=14;glass=0;strokeWidth=1;shadow=0;fontFamily=Times New Roman;" vertex="1" parent="WIyWlLk6GJQsqaUBKTNV-1">
          <mxGeometry x="560" y="230" width="140" height="50" as="geometry" />
        </mxCell>
        <mxCell id="gdvSEe7s5PmMgBLLPzjQ-5" value="&lt;div style=&quot;&quot;&gt;Fix optimal combination of&amp;nbsp;&lt;span style=&quot;&quot;&gt;α and β&lt;/span&gt;&lt;/div&gt;" style="text;whiteSpace=wrap;html=1;fontFamily=Times New Roman;fontSize=14;align=left;" vertex="1" parent="WIyWlLk6GJQsqaUBKTNV-1">
          <mxGeometry x="475" y="110" width="90" height="50" as="geometry" />
        </mxCell>
        <mxCell id="gdvSEe7s5PmMgBLLPzjQ-17" value="Evaluate performance on test set&amp;nbsp;" style="rounded=1;whiteSpace=wrap;html=1;fontSize=14;glass=0;strokeWidth=1;shadow=0;fontFamily=Times New Roman;" vertex="1" parent="WIyWlLk6GJQsqaUBKTNV-1">
          <mxGeometry x="280" y="230" width="190" height="50" as="geometry" />
        </mxCell>
      </root>
    </mxGraphModel>
  </diagram>
</mxfile>
